<svg width="98" height="36" viewBox="0 0 98 36" fill="none" xmlns="http://www.w3.org/2000/svg">
<path d="M13.5062 17.38L16.9142 21.388C17.0822 21.548 17.2502 21.668 17.4182 21.748C17.5942 21.828 17.8062 21.872 18.0542 21.88V22H17.5382C17.4582 22 17.3422 21.996 17.1902 21.988C17.0462 21.972 16.8862 21.944 16.7102 21.904C16.5422 21.856 16.3702 21.788 16.1942 21.7C16.0262 21.604 15.8742 21.476 15.7382 21.316C15.7382 21.316 15.6662 21.232 15.5222 21.064C15.3862 20.896 15.2062 20.68 14.9822 20.416C14.7662 20.152 14.5342 19.872 14.2862 19.576C14.0462 19.272 13.8142 18.988 13.5902 18.724C13.3742 18.46 13.1942 18.244 13.0502 18.076C12.9142 17.908 12.8462 17.824 12.8462 17.824L13.5062 17.38ZM16.9742 13.684L13.3862 17.824H12.8462L16.1462 13.684H16.9742ZM17.8022 13.6V13.708H17.7542C17.4902 13.708 17.2422 13.76 17.0102 13.864C16.7862 13.968 16.5942 14.112 16.4342 14.296L15.6782 14.272C15.7822 14.136 15.7982 14.008 15.7262 13.888C15.6622 13.768 15.5502 13.708 15.3902 13.708H15.2702V13.6H17.7542H17.8022ZM12.4622 13.6V22H11.6822V13.6H12.4622ZM11.7182 21.124V22H10.7582V21.88C10.7582 21.88 10.7822 21.88 10.8302 21.88C10.8862 21.88 10.9142 21.88 10.9142 21.88C11.1222 21.88 11.2982 21.808 11.4422 21.664C11.5942 21.512 11.6742 21.332 11.6822 21.124H11.7182ZM11.7182 14.476H11.6822C11.6742 14.268 11.5942 14.092 11.4422 13.948C11.2982 13.796 11.1222 13.72 10.9142 13.72C10.9142 13.72 10.8862 13.72 10.8302 13.72C10.7822 13.72 10.7582 13.72 10.7582 13.72V13.6H11.7182V14.476ZM12.4262 21.124H12.4622C12.4702 21.332 12.5462 21.512 12.6902 21.664C12.8422 21.808 13.0222 21.88 13.2302 21.88C13.2302 21.88 13.2542 21.88 13.3022 21.88C13.3502 21.88 13.3782 21.88 13.3862 21.88V22H12.4262V21.124ZM12.4262 14.476V13.6H13.3862V13.72C13.3782 13.72 13.3502 13.72 13.3022 13.72C13.2542 13.72 13.2302 13.72 13.2302 13.72C13.0222 13.72 12.8422 13.796 12.6902 13.948C12.5462 14.092 12.4702 14.268 12.4622 14.476H12.4262ZM22.3169 14.632L25.6169 21.928H24.6689L22.1129 15.7L22.3169 14.632ZM20.0009 21.124C19.9129 21.364 19.9249 21.552 20.0369 21.688C20.1489 21.816 20.2769 21.88 20.4209 21.88H20.5169V22H18.2249V21.88C18.2249 21.88 18.2409 21.88 18.2729 21.88C18.3049 21.88 18.3209 21.88 18.3209 21.88C18.4889 21.88 18.6609 21.824 18.8369 21.712C19.0129 21.592 19.1649 21.396 19.2929 21.124H20.0009ZM22.3169 14.632L22.4009 15.46L19.6529 21.964H18.8969L21.7409 15.868C21.7409 15.868 21.7609 15.82 21.8009 15.724C21.8489 15.628 21.9009 15.512 21.9569 15.376C22.0209 15.232 22.0769 15.092 22.1249 14.956C22.1729 14.82 22.2009 14.712 22.2089 14.632H22.3169ZM23.7329 19.204V19.564H20.5529V19.204H23.7329ZM24.3449 21.124H25.2569C25.3769 21.396 25.5249 21.592 25.7009 21.712C25.8769 21.824 26.0449 21.88 26.2049 21.88C26.2049 21.88 26.2209 21.88 26.2529 21.88C26.2849 21.88 26.3009 21.88 26.3009 21.88V22H23.8409V21.88H23.9369C24.0729 21.88 24.1969 21.816 24.3089 21.688C24.4209 21.552 24.4329 21.364 24.3449 21.124ZM27.898 14.62L34.546 20.884L34.666 22.168L28.018 15.868L27.898 14.62ZM27.922 21.256V22H27.022V21.88C27.022 21.88 27.054 21.88 27.118 21.88C27.19 21.88 27.226 21.88 27.226 21.88C27.41 21.88 27.566 21.82 27.694 21.7C27.822 21.58 27.886 21.432 27.886 21.256H27.922ZM28.426 21.256C28.426 21.432 28.49 21.58 28.618 21.7C28.754 21.82 28.91 21.88 29.086 21.88C29.086 21.88 29.118 21.88 29.182 21.88C29.254 21.88 29.29 21.88 29.29 21.88V22H28.39V21.256H28.426ZM27.898 14.62L28.414 15.292L28.426 22H27.886V16.12C27.886 15.712 27.866 15.36 27.826 15.064C27.794 14.768 27.778 14.62 27.778 14.62H27.898ZM34.666 14.8V20.632C34.666 20.888 34.674 21.136 34.69 21.376C34.706 21.608 34.722 21.8 34.738 21.952C34.762 22.096 34.774 22.168 34.774 22.168H34.666L34.138 21.532V14.8H34.666ZM34.63 15.544V14.8H35.53V14.92C35.53 14.92 35.494 14.92 35.422 14.92C35.358 14.92 35.326 14.92 35.326 14.92C35.15 14.92 34.994 14.98 34.858 15.1C34.73 15.22 34.666 15.368 34.666 15.544H34.63ZM34.138 15.544C34.13 15.368 34.062 15.22 33.934 15.1C33.806 14.98 33.65 14.92 33.466 14.92C33.466 14.92 33.43 14.92 33.358 14.92C33.294 14.92 33.262 14.92 33.262 14.92V14.8H34.162V15.544H34.138ZM40.3455 14.632L43.6455 21.928H42.6975L40.1415 15.7L40.3455 14.632ZM38.0295 21.124C37.9415 21.364 37.9535 21.552 38.0655 21.688C38.1775 21.816 38.3055 21.88 38.4495 21.88H38.5455V22H36.2535V21.88C36.2535 21.88 36.2695 21.88 36.3015 21.88C36.3335 21.88 36.3495 21.88 36.3495 21.88C36.5175 21.88 36.6895 21.824 36.8655 21.712C37.0415 21.592 37.1935 21.396 37.3215 21.124H38.0295ZM40.3455 14.632L40.4295 15.46L37.6815 21.964H36.9255L39.7695 15.868C39.7695 15.868 39.7895 15.82 39.8295 15.724C39.8775 15.628 39.9295 15.512 39.9855 15.376C40.0495 15.232 40.1055 15.092 40.1535 14.956C40.2015 14.82 40.2295 14.712 40.2375 14.632H40.3455ZM41.7615 19.204V19.564H38.5815V19.204H41.7615ZM42.3735 21.124H43.2855C43.4055 21.396 43.5535 21.592 43.7295 21.712C43.9055 21.824 44.0735 21.88 44.2335 21.88C44.2335 21.88 44.2495 21.88 44.2815 21.88C44.3135 21.88 44.3295 21.88 44.3295 21.88V22H41.8695V21.88H41.9655C42.1015 21.88 42.2255 21.816 42.3375 21.688C42.4495 21.552 42.4615 21.364 42.3735 21.124ZM56.8825 13.432L56.9785 14.236L53.9665 20.944C53.9665 20.944 53.9345 21.012 53.8705 21.148C53.8145 21.284 53.7545 21.448 53.6905 21.64C53.6265 21.824 53.5825 22 53.5585 22.168H53.4385L53.2705 21.412L56.8825 13.432ZM49.5025 21.124V22H48.1705V21.88C48.1785 21.88 48.2105 21.88 48.2665 21.88C48.3305 21.88 48.3625 21.88 48.3625 21.88C48.5785 21.88 48.7705 21.816 48.9385 21.688C49.1065 21.552 49.2065 21.364 49.2385 21.124H49.5025ZM49.8505 21.316C49.8505 21.324 49.8505 21.332 49.8505 21.34C49.8505 21.348 49.8505 21.36 49.8505 21.376C49.8505 21.504 49.8945 21.624 49.9825 21.736C50.0785 21.84 50.1905 21.892 50.3185 21.892H50.4985V22H49.7665V21.316H49.8505ZM50.1385 13.432H50.2585L50.4985 14.14L49.7905 22H49.1425L50.1385 13.432ZM50.2585 13.432L53.7145 20.908L53.4385 22.168L50.0305 14.776L50.2585 13.432ZM56.9905 13.432L58.0225 22H57.0865L56.4265 14.728L56.8825 13.432H56.9905ZM57.6625 21.124H57.9145C57.9545 21.364 58.0585 21.552 58.2265 21.688C58.3945 21.816 58.5825 21.88 58.7905 21.88C58.7905 21.88 58.8225 21.88 58.8865 21.88C58.9505 21.88 58.9825 21.88 58.9825 21.88V22H57.6625V21.124ZM57.0265 21.316H57.1105V22H56.3785V21.892H56.5585C56.6945 21.892 56.8065 21.84 56.8945 21.736C56.9825 21.624 57.0265 21.504 57.0265 21.376C57.0265 21.36 57.0265 21.348 57.0265 21.34C57.0265 21.332 57.0265 21.324 57.0265 21.316ZM61.8105 14.8V22H61.0425V14.8H61.8105ZM65.0385 21.628L65.0145 22H61.7865V21.628H65.0385ZM64.4745 18.22V18.58H61.7865V18.22H64.4745ZM65.0265 14.8V15.172H61.7865V14.8H65.0265ZM65.7105 20.284L65.0505 22H63.2265L63.6345 21.628C64.0345 21.628 64.3545 21.572 64.5945 21.46C64.8425 21.34 65.0425 21.18 65.1945 20.98C65.3465 20.772 65.4785 20.54 65.5905 20.284H65.7105ZM64.4745 18.556V19.24H64.3425V19.084C64.3425 18.948 64.3025 18.832 64.2225 18.736C64.1425 18.632 64.0185 18.58 63.8505 18.58V18.556H64.4745ZM64.4745 17.56V18.244H63.8505V18.22C64.0185 18.22 64.1425 18.172 64.2225 18.076C64.3025 17.972 64.3425 17.852 64.3425 17.716V17.56H64.4745ZM65.0265 15.136V15.964H64.8945V15.784C64.8945 15.616 64.8385 15.472 64.7265 15.352C64.6225 15.232 64.4785 15.172 64.2945 15.172V15.136H65.0265ZM65.0265 14.608V14.92L63.6585 14.8C63.9065 14.8 64.1705 14.78 64.4505 14.74C64.7305 14.692 64.9225 14.648 65.0265 14.608ZM61.0665 21.232L61.2225 22H60.1785V21.88C60.1785 21.88 60.2065 21.88 60.2625 21.88C60.3185 21.88 60.3465 21.88 60.3465 21.88C60.5465 21.88 60.7105 21.816 60.8385 21.688C60.9665 21.56 61.0345 21.408 61.0425 21.232H61.0665ZM61.0665 15.556H61.0425C61.0345 15.372 60.9665 15.22 60.8385 15.1C60.7105 14.98 60.5465 14.92 60.3465 14.92C60.3465 14.92 60.3185 14.92 60.2625 14.92C60.2065 14.92 60.1785 14.92 60.1785 14.92V14.8H61.2225L61.0665 15.556ZM70.9801 14.8C71.7721 14.8 72.4561 14.944 73.0321 15.232C73.6081 15.52 74.0521 15.936 74.3641 16.48C74.6761 17.016 74.8321 17.656 74.8321 18.4C74.8321 19.144 74.6761 19.784 74.3641 20.32C74.0521 20.856 73.6081 21.272 73.0321 21.568C72.4561 21.856 71.7721 22 70.9801 22H68.4241L68.4001 21.64C68.9601 21.64 69.4281 21.64 69.8041 21.64C70.1881 21.64 70.4801 21.64 70.6801 21.64C70.8801 21.64 70.9801 21.64 70.9801 21.64C71.9081 21.64 72.6361 21.352 73.1641 20.776C73.7001 20.192 73.9681 19.4 73.9681 18.4C73.9681 17.4 73.7001 16.612 73.1641 16.036C72.6361 15.452 71.9081 15.16 70.9801 15.16C70.9801 15.16 70.8761 15.16 70.6681 15.16C70.4601 15.16 70.1561 15.16 69.7561 15.16C69.3561 15.16 68.8641 15.16 68.2801 15.16V14.8H70.9801ZM68.5921 14.8V22H67.8121V14.8H68.5921ZM67.8361 21.22V22H66.9721V21.88C66.9721 21.88 66.9961 21.88 67.0441 21.88C67.1001 21.88 67.1281 21.88 67.1281 21.88C67.3201 21.88 67.4801 21.816 67.6081 21.688C67.7361 21.552 67.8041 21.396 67.8121 21.22H67.8361ZM67.8361 15.58H67.8121C67.8041 15.388 67.7321 15.232 67.5961 15.112C67.4681 14.984 67.3081 14.92 67.1161 14.92C67.1161 14.92 67.0921 14.92 67.0441 14.92C66.9961 14.92 66.9721 14.92 66.9721 14.92V14.8H67.8361V15.58ZM78.0135 14.8V22H77.2575V14.8H78.0135ZM77.2935 21.232V22H76.2735V21.88C76.2735 21.88 76.3015 21.88 76.3575 21.88C76.4135 21.88 76.4415 21.88 76.4415 21.88C76.6655 21.88 76.8535 21.816 77.0055 21.688C77.1655 21.56 77.2495 21.408 77.2575 21.232H77.2935ZM77.9775 21.232H78.0135C78.0215 21.408 78.1015 21.56 78.2535 21.688C78.4135 21.816 78.6055 21.88 78.8295 21.88C78.8295 21.88 78.8535 21.88 78.9015 21.88C78.9575 21.88 78.9855 21.88 78.9855 21.88L78.9975 22H77.9775V21.232ZM77.9775 15.568V14.8H78.9975L78.9855 14.92C78.9855 14.92 78.9575 14.92 78.9015 14.92C78.8535 14.92 78.8295 14.92 78.8295 14.92C78.6055 14.92 78.4135 14.984 78.2535 15.112C78.1015 15.232 78.0215 15.384 78.0135 15.568H77.9775ZM77.2935 15.568H77.2575C77.2495 15.384 77.1655 15.232 77.0055 15.112C76.8535 14.984 76.6655 14.92 76.4415 14.92C76.4335 14.92 76.4015 14.92 76.3455 14.92C76.2975 14.92 76.2735 14.92 76.2735 14.92V14.8H77.2935V15.568ZM84.0368 14.632L87.3368 21.928H86.3888L83.8328 15.7L84.0368 14.632ZM81.7208 21.124C81.6328 21.364 81.6448 21.552 81.7568 21.688C81.8688 21.816 81.9968 21.88 82.1408 21.88H82.2368V22H79.9448V21.88C79.9448 21.88 79.9608 21.88 79.9928 21.88C80.0248 21.88 80.0408 21.88 80.0408 21.88C80.2088 21.88 80.3808 21.824 80.5568 21.712C80.7328 21.592 80.8848 21.396 81.0128 21.124H81.7208ZM84.0368 14.632L84.1208 15.46L81.3728 21.964H80.6168L83.4608 15.868C83.4608 15.868 83.4808 15.82 83.5208 15.724C83.5688 15.628 83.6208 15.512 83.6768 15.376C83.7408 15.232 83.7968 15.092 83.8448 14.956C83.8928 14.82 83.9208 14.712 83.9288 14.632H84.0368ZM85.4528 19.204V19.564H82.2728V19.204H85.4528ZM86.0648 21.124H86.9768C87.0968 21.396 87.2448 21.592 87.4208 21.712C87.5968 21.824 87.7648 21.88 87.9248 21.88C87.9248 21.88 87.9408 21.88 87.9728 21.88C88.0048 21.88 88.0208 21.88 88.0208 21.88V22H85.5608V21.88H85.6568C85.7928 21.88 85.9168 21.816 86.0288 21.688C86.1408 21.552 86.1528 21.364 86.0648 21.124Z" fill="white"/>
</svg>
